<svg width="650" height="651" viewBox="0 0 650 651" fill="none" xmlns="http://www.w3.org/2000/svg">
<rect width="650" height="650" fill="#0069E5"/>
<ellipse cx="472" cy="270.5" rx="49" ry="64.5" fill="#1F0325"/>
<path d="M161.308 201.03C63.0673 312.339 102.491 493.204 194.206 650.029H446.942C446.942 631.5 398.5 566.626 357.2 538.655C270.47 479.914 254.021 402.806 283.43 408.299C315.539 414.295 365.674 408.299 387.606 392.817C385.778 391.319 573.564 399.31 581.006 372.839C597.996 312.406 503.4 372.839 434.461 228.999C392.092 140.597 256.082 93.6494 161.308 201.03Z" fill="white"/>
<path d="M500 275C494.5 279 494.199 269.153 483.199 252.653C459.2 221.154 483.699 223.154 494.2 240.154C499.662 248.997 506.875 270 500 275Z" fill="white"/>
<path d="M270.005 254.5L316.005 243.5C344.338 260.5 396 249.1 390 269.5C382.5 295 421 342 335.505 352C287 357.673 263.671 290.167 270.005 254.5Z" fill="#D9D9D9"/>
<path d="M374 365.5C396.976 352.66 398.354 367.972 392.764 392.61C389.274 392.61 387.417 392.662 387.606 392.817C365.675 408.299 315.539 414.296 283.43 408.299C279.701 407.602 276.71 408.234 274.506 409.987C253.918 397.358 235.084 382.619 222.5 365.5C252 378 304.5 404.338 374 365.5Z" fill="#D9D9D9"/>
<path d="M260.203 141.72C109.17 251.444 173.473 523.434 270.926 650H194.189C102.486 493.182 63.0737 312.332 161.309 201.03C191.537 166.781 225.961 148.231 260.203 141.72Z" fill="#D9D9D9"/>
<path d="M437.786 235.74C506.396 370.938 597.724 313.372 581.006 372.839C573.564 399.309 385.779 391.319 387.606 392.817C376.478 400.673 358.086 406.084 338.474 408.728C368.297 387.639 391.18 349.757 389.502 298.585C386.894 280.068 389.151 267.152 392.749 258.322C396.352 249.481 401.273 244.8 403.875 242.719C403.999 242.619 404.146 242.551 404.302 242.52L437.786 235.74Z" fill="#DE003D"/>
<path d="M437.787 235.74C506.396 370.938 597.724 313.373 581.007 372.839C580.788 373.615 580.412 374.36 579.893 375.078C574.335 375.432 568.597 375.896 562.696 376.364C549.004 377.45 534.465 378.553 519.422 378.312C489.314 377.831 457.14 371.969 425.428 349.82C418.676 345.105 413.815 336.44 410.35 325.697C406.876 314.926 404.756 301.909 403.592 288.294C402.327 273.499 402.19 257.949 402.688 243.724C403.122 243.338 403.52 243.003 403.876 242.719C404 242.619 404.147 242.551 404.303 242.52L437.787 235.74Z" fill="#FF6000"/>
<ellipse cx="451" cy="328" rx="8" ry="9" fill="#1F0325"/>
<path d="M166.5 301L182.5 279L317 243.5L453.5 240" stroke="#1F0325" stroke-width="24" stroke-linecap="round" stroke-linejoin="round"/>
<ellipse cx="348" cy="269.5" rx="58" ry="67.5" fill="#1F0325"/>
<path d="M386.98 280.904C381.077 285.832 380.754 273.701 368.948 253.373C343.187 214.565 369.484 217.029 380.754 237.973C386.618 248.869 394.36 274.744 386.98 280.904Z" fill="#FEFCFB"/>
</svg>
