<svg width="135" height="135" viewBox="0 0 135 135" fill="none" xmlns="http://www.w3.org/2000/svg">
<path fill-rule="evenodd" clip-rule="evenodd" d="M81.2706 5.66671L129.331 53.6782C136.89 61.2339 136.89 73.5032 129.331 81.0589L81.2706 129.339C73.7119 136.887 61.4224 136.887 53.8641 129.339L5.66898 81.1932C-1.88966 73.6376 -1.88966 61.3678 5.66898 53.8126L53.8641 5.66671C61.4224 -1.8889 73.7119 -1.8889 81.2706 5.66671ZM64.3921 17.802L64.2581 17.9362L18.0852 64.0607C16.1974 65.9475 16.1974 68.7817 17.9509 70.669L18.0852 70.8034L64.1238 116.793C66.0114 118.68 68.8467 118.68 70.7422 116.928L70.8766 116.793L116.915 70.8034C118.803 68.9161 118.803 65.8132 116.915 63.9264L71.011 18.0705C69.2573 16.1835 66.2876 16.1835 64.3921 17.802ZM68.444 38.1641L96.9327 66.6188C97.4698 67.1561 97.4698 67.8348 96.9327 68.3717L68.444 96.8267C67.9068 97.3636 67.2279 97.3636 66.6903 96.8267L38.2018 68.3717C37.6646 67.8348 37.6646 67.1561 38.2018 66.6188L66.6903 38.1641C67.2279 37.6271 67.9068 37.6271 68.444 38.1641Z" fill="#101828"/>
</svg>